<svg id="Layer_1" data-name="Layer 1" xmlns="http://www.w3.org/2000/svg" xmlns:xlink="http://www.w3.org/1999/xlink" viewBox="0 0 200 60"><defs><style>.cls-1{fill:url(#linear-gradient);}.cls-2{fill:#fff;}</style><linearGradient id="linear-gradient" y1="30.75" x2="200" y2="30.75" gradientTransform="matrix(1, 0, 0, -1, 0, 60.75)" gradientUnits="userSpaceOnUse"><stop offset="0.05" stop-color="#8b5fa3" stop-opacity="0.99"/><stop offset="1" stop-color="#4499d4"/></linearGradient></defs><rect class="cls-1" width="200" height="60" rx="10"/><path class="cls-2" d="M37.72,37.85a10.85,10.85,0,0,1-9.93,2.21A11.19,11.19,0,0,1,25.2,39,11,11,0,0,1,23,37.26a10.66,10.66,0,0,1-1.71-2.2,11.21,11.21,0,0,1-1.1-2.59,11.14,11.14,0,0,1,0-5.77A11.05,11.05,0,0,1,23,21.89a10.56,10.56,0,0,1,2.2-1.69,10.41,10.41,0,0,1,2.59-1.1,10.27,10.27,0,0,1,2.88-.4,10.75,10.75,0,0,1,3.77.68,10.18,10.18,0,0,1,3.28,1.93L35.49,25a6.17,6.17,0,0,0-2.18-1.52,6.63,6.63,0,0,0-2.64-.54,6.49,6.49,0,0,0-2.6.52,6.79,6.79,0,0,0-2.13,1.44,6.64,6.64,0,0,0-1.43,7.31,6.7,6.7,0,0,0,3.56,3.54,6.5,6.5,0,0,0,2.6.53,6.8,6.8,0,0,0,2.64-.53,6.23,6.23,0,0,0,2.18-1.54ZM54.35,32a8.52,8.52,0,0,1-.63,3.28A8.22,8.22,0,0,1,52,37.92a8.13,8.13,0,0,1-2.55,1.74,7.7,7.7,0,0,1-3.12.63,7.84,7.84,0,0,1-3.12-.63,8.44,8.44,0,0,1-2.54-1.74A8.22,8.22,0,0,1,39,35.3a8.93,8.93,0,0,1,0-6.59,8,8,0,0,1,4.26-4.37,7.84,7.84,0,0,1,3.12-.63,8,8,0,0,1,3.12.6A7.25,7.25,0,0,1,52,26a7.7,7.7,0,0,1,1.72,2.62A8.8,8.8,0,0,1,54.35,32Zm-4,0A4.62,4.62,0,0,0,50,30.27a4.09,4.09,0,0,0-.85-1.34,3.51,3.51,0,0,0-1.28-.87,4,4,0,0,0-1.54-.31,4.08,4.08,0,0,0-1.55.31,3.52,3.52,0,0,0-1.26.87,4,4,0,0,0-.83,1.34A4.62,4.62,0,0,0,42.38,32a4.44,4.44,0,0,0,.31,1.68A4,4,0,0,0,44.78,36a3.91,3.91,0,0,0,1.55.32,4,4,0,0,0,2.82-1.17A4,4,0,0,0,50,33.76,4.68,4.68,0,0,0,50.32,32Zm10.24,8h-4V24.31h1l1.31,1.52A7.06,7.06,0,0,1,61,24.49,7,7,0,0,1,63.59,24a6.71,6.71,0,0,1,2.71.56,6.82,6.82,0,0,1,2.23,1.51A6.92,6.92,0,0,1,70,28.31,6.77,6.77,0,0,1,70.58,31v9h-4V31a2.83,2.83,0,0,0-.24-1.16,2.94,2.94,0,0,0-1.59-1.61A2.83,2.83,0,0,0,63.59,28a3,3,0,0,0-1.19.24,2.89,2.89,0,0,0-1,.64,3,3,0,0,0-.65,1A3,3,0,0,0,60.56,31Zm20.53,0a6.91,6.91,0,0,1-2.72-.54,7.07,7.07,0,0,1-3.75-3.75A6.93,6.93,0,0,1,74.08,33V28.33h-2v-4h2V18.07h4v6.27h6.07v4H78.06V33a3,3,0,0,0,.24,1.19,3,3,0,0,0,.64.95,3,3,0,0,0,1,.66,2.93,2.93,0,0,0,1.18.24h3v4Zm20.48,0h-1l-1.56-2.15a12.75,12.75,0,0,1-1.21,1,8.52,8.52,0,0,1-1.34.78,8,8,0,0,1-1.45.51,5.69,5.69,0,0,1-1.49.19,8.76,8.76,0,0,1-3.12-.55,7.52,7.52,0,0,1-2.55-1.61,7.89,7.89,0,0,1-1.71-2.61,9.18,9.18,0,0,1-.63-3.5,8.74,8.74,0,0,1,.63-3.36A8.08,8.08,0,0,1,87.89,26a7.6,7.6,0,0,1,2.55-1.7,8,8,0,0,1,3.12-.62,6,6,0,0,1,1.51.19,7.64,7.64,0,0,1,1.45.53,8.48,8.48,0,0,1,1.33.79,10.45,10.45,0,0,1,1.2,1l1.56-1.86h1Zm-4-8a4,4,0,0,0-.32-1.59,4.34,4.34,0,0,0-.85-1.36,4,4,0,0,0-1.27-.95,3.4,3.4,0,0,0-1.54-.37A4.44,4.44,0,0,0,92,28a3.66,3.66,0,0,0-1.26.82,4,4,0,0,0-.84,1.35,5.11,5.11,0,0,0-.3,1.82,5.24,5.24,0,0,0,.3,1.83,4,4,0,0,0,.84,1.33A3.52,3.52,0,0,0,92,36a4.22,4.22,0,0,0,1.55.28,3.51,3.51,0,0,0,1.54-.35,4.45,4.45,0,0,0,1.27-1,4.5,4.5,0,0,0,.85-1.37A4,4,0,0,0,97.54,32Zm20.81-4.59-2.93,2.95a4,4,0,0,0-.6-1.1,4.31,4.31,0,0,0-.87-.84,3.74,3.74,0,0,0-3.72-.35A3.88,3.88,0,0,0,109,29a4.42,4.42,0,0,0-.83,1.44,5.19,5.19,0,0,0-.31,1.84,3.78,3.78,0,0,0,.31,1.54,4,4,0,0,0,.83,1.26,4,4,0,0,0,3.94,1,4,4,0,0,0,1-.46,3.73,3.73,0,0,0,.85-.73,3.65,3.65,0,0,0,.62-1l2.93,2.95a8.14,8.14,0,0,1-2.86,2.49,7.85,7.85,0,0,1-1.77.66,8.19,8.19,0,0,1-5-.38A8.37,8.37,0,0,1,106.11,38a8.07,8.07,0,0,1-1.71-2.53,7.72,7.72,0,0,1-.63-3.11A8.89,8.89,0,0,1,104.4,29a8.66,8.66,0,0,1,1.71-2.73,8.42,8.42,0,0,1,2.55-1.85,7.54,7.54,0,0,1,3.12-.67,7.22,7.22,0,0,1,1.92.25,7.47,7.47,0,0,1,1.8.73,7.2,7.2,0,0,1,1.59,1.16A7.82,7.82,0,0,1,118.35,27.43ZM128.17,40a6.91,6.91,0,0,1-2.72-.54,7.07,7.07,0,0,1-3.75-3.75,6.93,6.93,0,0,1-.54-2.73V28.33h-2v-4h2V18.07h4v6.27h6.07v4h-6.07V33a3,3,0,0,0,.24,1.19,3,3,0,0,0,.64.95,3.09,3.09,0,0,0,1,.66,3,3,0,0,0,1.18.24h3v4Zm35,0H159V25a2,2,0,0,0-.17-.82,2,2,0,0,0-.46-.66,1.8,1.8,0,0,0-.66-.45,2,2,0,0,0-.82-.16,2.07,2.07,0,0,0-.82.16,2,2,0,0,0-.67.45,2.12,2.12,0,0,0-.44.66,2,2,0,0,0-.16.82V40h-4.21V25a2,2,0,0,0-.16-.82,2.15,2.15,0,0,0-.45-.66,2,2,0,0,0-.66-.45,2.07,2.07,0,0,0-.82-.16,2,2,0,0,0-.82.16,2.07,2.07,0,0,0-.68.45,2.31,2.31,0,0,0-.44.66,2.22,2.22,0,0,0-.16.82V40h-4.2V25A6.26,6.26,0,0,1,146,19.2a6.18,6.18,0,0,1,2.46-.5,6,6,0,0,1,2.25.43,5.78,5.78,0,0,1,2,1.2,6.3,6.3,0,0,1,4.19-1.63,6.1,6.1,0,0,1,2.45.5,6.25,6.25,0,0,1,3.35,3.35,6.13,6.13,0,0,1,.5,2.45Zm9.41-3.84a1.9,1.9,0,0,0,.46.1l.47,0a3.86,3.86,0,0,0,1.13-.16,4,4,0,0,0,1-.46,3.73,3.73,0,0,0,.85-.73,3.91,3.91,0,0,0,.62-1L180,36.91a7.92,7.92,0,0,1-1.29,1.42,7.64,7.64,0,0,1-1.57,1.07,7.85,7.85,0,0,1-1.77.66,7.94,7.94,0,0,1-7.58-2.1,8.16,8.16,0,0,1-1.71-2.6,8.68,8.68,0,0,1-.63-3.34,8.87,8.87,0,0,1,.63-3.4A7.83,7.83,0,0,1,167.81,26a7.94,7.94,0,0,1,2.55-1.69,8.18,8.18,0,0,1,3.12-.6,7.65,7.65,0,0,1,1.92.24,7.53,7.53,0,0,1,1.77.67,7.69,7.69,0,0,1,1.59,1.08,8.71,8.71,0,0,1,1.29,1.42Zm2-8.24a2.42,2.42,0,0,0-.56-.14,5,5,0,0,0-.56,0,4.08,4.08,0,0,0-1.55.31,3.74,3.74,0,0,0-1.26.85,4,4,0,0,0-.83,1.35,4.64,4.64,0,0,0-.31,1.76c0,.14,0,.31,0,.49s.05.38.08.58a5.29,5.29,0,0,0,.13.54,2.2,2.2,0,0,0,.19.47Z"/></svg>